<svg xmlns="http://www.w3.org/2000/svg" viewBox="0 0 1536 1536" role="img" aria-label="HTML5 logo">
  <g transform="translate(287 205) scale(2.13)">
    <path fill="#e44d26" d="M41 460 0 0h451l-41 460-185 52z"/>
    <path fill="#f16529" d="m226 472 150-41 35-394H226z"/>
    <path fill="#ebebeb" d="M226 208h-75l-5-58h80V94H85l1 15 14 156h126zm0 147h-1l-63-17-4-45h-56l8 89 115 32h1z"/>
    <path fill="#fff" d="M226 208v57h70l-6 73-64 17v59l125-32 1-10 13-149 2-15zm0-114v56h146l1-12 3-29 1-15z"/>
  </g>
</svg>
